<svg width="41" height="41" viewBox="0 0 41 41" fill="none" xmlns="http://www.w3.org/2000/svg">
<path d="M20.3799 3.24716C20.6534 3.24716 20.9404 3.02527 20.9404 2.75164V1.57377C20.9404 1.30022 20.6534 1.07825 20.3799 1.07825C20.1063 1.07825 19.8193 1.30014 19.8193 1.57377V2.75164C19.8193 3.02519 20.1063 3.24716 20.3799 3.24716Z" fill="#E7E27C"/>
<path d="M24.3813 4.81118C24.5082 4.81118 24.6348 4.76274 24.7316 4.666L25.5646 3.83303C25.7581 3.6394 25.7581 3.32565 25.5646 3.13235C25.371 2.93888 25.0576 2.93888 24.8639 3.13235L24.031 3.96532C23.8375 4.15879 23.8375 4.47253 24.031 4.666C24.1278 4.76274 24.2545 4.81118 24.3813 4.81118Z" fill="#E7E27C"/>
<path d="M16.1384 4.80726C16.2352 4.90407 16.3619 4.95244 16.4887 4.95244C16.6156 4.95244 16.7422 4.90407 16.8391 4.80726C17.0327 4.61395 17.0327 4.3002 16.8391 4.10657L16.0061 3.27376C15.8126 3.08013 15.499 3.08013 15.3056 3.27376C15.1119 3.46707 15.1119 3.78082 15.3056 3.97429L16.1384 4.80726Z" fill="#E7E27C"/>
<path d="M13.7989 10.16C13.7138 9.7291 13.6705 9.28074 13.6705 8.82742C13.6705 8.32533 13.7256 7.82532 13.8341 7.34125C13.894 7.07443 13.7261 6.80929 13.459 6.74939C13.194 6.69045 12.927 6.85717 12.867 7.12447C12.7426 7.67958 12.6794 8.25261 12.6794 8.82742C12.6794 9.34512 12.729 9.8581 12.8269 10.3523C12.8735 10.5883 13.0806 10.7518 13.3124 10.7518C13.3441 10.7518 13.3766 10.7487 13.4091 10.7421C13.6776 10.6892 13.8521 10.4284 13.7989 10.16Z" fill="#E7E27C"/>
<path d="M27.1609 11.6114C26.9163 11.4894 26.6184 11.5895 26.4966 11.8346C25.3446 14.1529 23.022 15.5935 20.4351 15.5943C17.8482 15.5935 15.5258 14.1529 14.3738 11.8346C14.2518 11.5895 13.9539 11.4894 13.7095 11.6114C13.4644 11.7331 13.3645 12.0057 13.4862 12.251C14.8064 14.9077 17.467 16.5361 20.4313 16.5361C20.4318 16.5361 20.4324 16.5361 20.4329 16.5361C20.4343 16.5361 20.436 16.5361 20.4375 16.5361C20.4381 16.5361 20.4386 16.5361 20.4391 16.5361C23.4034 16.5361 26.0642 14.9077 27.3842 12.251C27.5059 12.0057 27.4059 11.7331 27.1609 11.6114Z" fill="#E7E27C"/>
<path d="M28.0406 10.3531C28.1402 9.85375 28.1908 9.34053 28.1908 8.82739C28.1908 8.25139 28.127 7.67627 28.0015 7.1182C27.9415 6.85106 27.6761 6.6829 27.4094 6.7436C27.1425 6.8035 26.9747 7.06863 27.0348 7.33561C27.1442 7.82249 27.1998 8.32442 27.1998 8.82739C27.1998 9.27535 27.1555 9.72354 27.0686 10.1592C27.0151 10.4276 27.1893 10.6884 27.4577 10.7421C27.4903 10.7486 27.5228 10.7517 27.5551 10.7517C27.7865 10.7518 27.9934 10.5886 28.0406 10.3531Z" fill="#E7E27C"/>
<path d="M25.2223 18.2979H15.5736C15.2764 18.2979 14.9346 18.6491 14.9346 18.9482V19.1284V39.3957C14.9346 39.693 15.2765 39.9189 15.5736 39.9189H25.2222C25.5194 39.9189 25.745 39.693 25.745 39.3957V19.1284V18.9482C25.7451 18.6491 25.5195 18.2979 25.2223 18.2979Z" fill="#E7E27C"/>
<path d="M16.6436 8.38626L18.4116 9.70218C18.5426 9.79739 18.5973 9.98181 18.5474 10.1359L17.8721 12.2222C17.7603 12.5666 18.1543 12.8569 18.4473 12.6441L20.2153 11.3613C20.3464 11.2661 20.5238 11.2671 20.6548 11.3623L22.4227 12.6475C22.7157 12.8603 23.1098 12.574 22.9979 12.2297L22.3226 10.1514C22.2726 9.99735 22.3275 9.82871 22.4584 9.73357L24.2265 8.38618C24.5196 8.17333 24.3688 7.64738 24.0068 7.64738H21.8214C21.6595 7.64738 21.5159 7.60574 21.4659 7.45167L20.7905 5.40463C20.6787 5.06005 20.1915 5.07583 20.0795 5.42024L19.4043 7.44382C19.3541 7.59789 19.2105 7.64738 19.0487 7.64738H16.8631C16.5011 7.64746 16.3507 8.17341 16.6436 8.38626Z" fill="#E7E27C"/>
<path d="M13.0127 29.3286C13.0127 29.0301 12.7707 28.7881 12.4722 28.7881H2.74268C2.44414 28.7881 2.20215 29.0301 2.20215 29.3286V39.4585C2.20215 39.757 2.44414 39.999 2.74268 39.999H12.4722C12.7707 39.999 13.0127 39.757 13.0127 39.4585V29.3286Z" fill="#E7E27C"/>
<path d="M6.53918 22.8139C6.62238 22.8745 6.65713 22.9815 6.62534 23.0792L6.39183 23.7976C6.32096 24.0161 6.57089 24.1977 6.75675 24.0627L7.36798 23.6187C7.45119 23.5583 7.56361 23.5583 7.64666 23.6187L8.25789 24.0627C8.44367 24.1978 8.6936 24.0161 8.62281 23.7976L8.3893 23.0792C8.35759 22.9815 8.39226 22.8745 8.4753 22.8139L9.0867 22.3501C9.27248 22.2154 9.17695 21.9014 8.94736 21.9014H8.19175C8.08917 21.9014 7.99796 21.8551 7.96641 21.7575L7.7329 21.0489C7.66203 20.8304 7.35285 20.8353 7.28198 21.0538L7.04847 21.7549C7.01676 21.8527 6.92555 21.9014 6.82281 21.9014H6.06751C5.83793 21.9014 5.74232 22.2154 5.92818 22.3501L6.53918 22.8139Z" fill="#E7E27C"/>
<path d="M7.50733 27.0266C9.92017 27.0266 11.883 25.0638 11.883 22.6511C11.883 20.2384 9.92017 18.2755 7.50733 18.2755C5.09466 18.2755 3.13162 20.2385 3.13162 22.6512C3.13162 25.0638 5.09466 27.0266 7.50733 27.0266ZM7.50733 19.2664C9.37668 19.2664 10.8921 20.7818 10.8921 22.6512C10.8921 24.5205 9.37668 26.0357 7.50733 26.0357C5.63815 26.0357 4.12259 24.5205 4.12259 22.6512C4.12259 20.7818 5.63815 19.2664 7.50733 19.2664Z" fill="#E7E27C"/>
<path d="M38.7178 29.3286C38.7178 29.0301 38.4758 28.7881 38.1772 28.7881H28.4478C28.1492 28.7881 27.9072 29.0301 27.9072 29.3286V39.4585C27.9072 39.757 28.1492 39.999 28.4478 39.999H38.1772C38.4758 39.999 38.7178 39.757 38.7178 39.4585V29.3286Z" fill="#E7E27C"/>
<path d="M32.3202 22.8139C32.4034 22.8745 32.4382 22.9815 32.4064 23.0792L32.1731 23.7976C32.102 24.0161 32.3521 24.1977 32.538 24.0627L33.1491 23.6187C33.2323 23.5583 33.3447 23.5583 33.4277 23.6187L34.039 24.0627C34.2247 24.1978 34.4748 24.0161 34.404 23.7976L34.1705 23.0792C34.1387 22.9815 34.1735 22.8745 34.2565 22.8139L34.8678 22.3501C35.0535 22.2154 34.958 21.9014 34.7284 21.9014H33.9728C33.8701 21.9014 33.7792 21.8551 33.7475 21.7575L33.514 21.0489C33.4431 20.8304 33.1339 20.8353 33.063 21.0538L32.8295 21.7549C32.7978 21.8527 32.7068 21.9014 32.604 21.9014H31.8486C31.619 21.9014 31.5234 22.2154 31.7092 22.3501L32.3202 22.8139Z" fill="#E7E27C"/>
<path d="M33.2884 27.0266C35.7012 27.0266 37.6643 25.0637 37.6643 22.651C37.6643 20.2384 35.7012 18.2753 33.2884 18.2753C30.8757 18.2753 28.9127 20.2384 28.9127 22.651C28.9127 25.0637 30.8757 27.0266 33.2884 27.0266ZM33.2884 19.2664C35.1577 19.2664 36.6733 20.7818 36.6733 22.6511C36.6733 24.5205 35.1577 26.0357 33.2884 26.0357C31.4192 26.0357 29.9037 24.5205 29.9037 22.6511C29.9037 20.7818 31.4192 19.2664 33.2884 19.2664Z" fill="#E7E27C"/>
</svg>
