<svg width="18" height="30" viewBox="0 0 18 30" fill="none" xmlns="http://www.w3.org/2000/svg">
<path d="M5.57143 22.681V9.13037C5.57143 8.4116 5.93265 7.72227 6.57563 7.21402C7.21862 6.70577 8.09069 6.42024 9 6.42024V6.42024C9.90931 6.42024 10.7814 6.70577 11.4244 7.21402C12.0673 7.72227 12.4286 8.4116 12.4286 9.13037V23.5844C12.4286 24.7823 11.8265 25.9312 10.7549 26.7783C9.68326 27.6253 8.22981 28.1012 6.71429 28.1012V28.1012C5.19876 28.1012 3.74531 27.6253 2.67368 26.7783C1.60204 25.9312 1 24.7823 1 23.5844V7.32362C1 5.64649 1.84286 4.03805 3.34315 2.85215C4.84344 1.66624 6.87827 1 9 1V1C11.1217 1 13.1566 1.66624 14.6569 2.85215C16.1571 4.03805 17 5.64649 17 7.32362V23.5844" stroke="#E7E27C" stroke-width="2" stroke-linecap="round" stroke-linejoin="round"/>
</svg>
