<svg width="39" height="35" viewBox="0 0 39 35" fill="none" xmlns="http://www.w3.org/2000/svg">
<path d="M2.625 0.625H36.375C36.8723 0.625 37.3492 0.822544 37.7008 1.17417C38.0525 1.52581 38.25 2.00272 38.25 2.5V32.5C38.25 32.9973 38.0525 33.4742 37.7008 33.8258C37.3492 34.1775 36.8723 34.375 36.375 34.375H2.625C2.12772 34.375 1.65081 34.1775 1.29917 33.8258C0.947544 33.4742 0.75 32.9973 0.75 32.5V2.5C0.75 2.00272 0.947544 1.52581 1.29917 1.17417C1.65081 0.822544 2.12772 0.625 2.625 0.625V0.625ZM17.625 10.9375V24.0625H21.375V10.9375H17.625ZM17.0906 10.9375H13.1269L10.32 18.6494L7.51312 10.9375H3.54938L8.445 23.995H12.195L17.0906 10.9375ZM27 20.3125H29.8125C31.0557 20.3125 32.248 19.8186 33.1271 18.9396C34.0061 18.0605 34.5 16.8682 34.5 15.625C34.5 14.3818 34.0061 13.1895 33.1271 12.3104C32.248 11.4314 31.0557 10.9375 29.8125 10.9375H23.25V24.0625H27V20.3125ZM27 16.5625V14.6875H29.8125C30.0611 14.6875 30.2996 14.7863 30.4754 14.9621C30.6512 15.1379 30.75 15.3764 30.75 15.625C30.75 15.8736 30.6512 16.1121 30.4754 16.2879C30.2996 16.4637 30.0611 16.5625 29.8125 16.5625H27Z" fill="#E7E27C"/>
</svg>
